<svg xmlns="http://www.w3.org/2000/svg" width="32" height="32"><g transform="translate(483.5 -1203.362)"><path fill="#f4606e" d="M-480 1209.862v19h23v-19h-23zm14.457 4.05a6.268 6.369 44.945 0 1 4.361 1.815 6.268 6.369 44.945 0 1-.072 8.936 6.268 6.369 44.945 0 1-8.935.072 6.268 6.369 44.945 0 1 .072-8.935 6.268 6.369 44.945 0 1 4.574-1.887z"/><path fill="#00a5ff" d="M-480 1205.862h23v4h-23z"/><path fill="#0079fd" d="M-480 1205.862v1.5h21.5v2.5h1.5v-4z"/><path fill="#fe2b70" d="M-458.5 1209.862v19h1.5v-19z"/><path fill="none" stroke="#000" d="M-480 1209.862h23"/><circle style="isolation:auto;mix-blend-mode:normal" cx="-478" cy="1207.862" r=".5" fill="#fe2b70" color="#000" overflow="visible"/><circle cx="-476" cy="1207.862" r=".5" fill="#f9d259" color="#000" overflow="visible" style="isolation:auto;mix-blend-mode:normal"/><circle style="isolation:auto;mix-blend-mode:normal" cx="-474" cy="1207.862" r=".5" fill="#f9d259" color="#000" overflow="visible"/><path fill="none" stroke="#000" stroke-dashoffset=".4" stroke-linecap="round" stroke-linejoin="round" stroke-miterlimit="0" style="isolation:auto;mix-blend-mode:normal" d="M-457 1215.77v13.092h-23v-23h23v5.512m0 1.888V1213.926" color="#000" overflow="visible"/><path style="isolation:auto;mix-blend-mode:normal" fill="#f8e71b" d="M-467.5 1218.362h2v9h-2zM-463.5 1220.362h2v7h-2zM-471.5 1225.362h2v2h-2zM-475.5 1222.362h2v5h-2z" color="#000" overflow="visible"/><path fill="#01d1ff" fill-rule="evenodd" style="line-height:normal;text-indent:0;text-align:start;text-decoration-line:none;text-decoration-style:solid;text-decoration-color:#000;text-transform:none;block-progression:tb;isolation:auto;mix-blend-mode:normal" d="M-459.72 1226.113a1.36 1.36 89.982 0 0 .028 1.92l5.333 5.332a1.36 1.36 89.982 1 0 1.922-1.922l-5.332-5.332a1.36 1.36 89.982 0 0-1.95 0z" color="#000" font-family="sans-serif" font-weight="400" overflow="visible"/><path fill-rule="evenodd" d="M-461.597 1224.215a.45.45 0 0 0 .009.64l2.345 2.345c.427.44 1.08-.214.64-.641l-2.344-2.345a.454.454 0 0 0-.65 0z" color="#000" font-family="sans-serif" font-weight="400" overflow="visible" style="line-height:normal;text-indent:0;text-align:start;text-decoration-line:none;text-decoration-style:solid;text-decoration-color:#000;text-transform:none;block-progression:tb;isolation:auto;mix-blend-mode:normal"/><ellipse cx="-1192.115" cy="533.526" fill="none" stroke="#01d1ff" stroke-linecap="round" stroke-linejoin="round" stroke-width="1.5" color="#000" style="isolation:auto;mix-blend-mode:normal" overflow="visible" rx="5.61" ry="5.52" transform="rotate(-45.001) skewX(-.002)"/><path fill="#01d1ff" fill-rule="evenodd" d="M-459.72 1226.113a1.36 1.36 89.982 0 0 .028 1.92l5.333 5.332a1.36 1.36 89.982 1 0 1.922-1.922l-5.332-5.332a1.36 1.36 89.982 0 0-1.95 0z" color="#000" font-family="sans-serif" font-weight="400" overflow="visible" style="line-height:normal;text-indent:0;text-align:start;text-decoration-line:none;text-decoration-style:solid;text-decoration-color:#000;text-transform:none;block-progression:tb;isolation:auto;mix-blend-mode:normal"/><path fill="#00a5ff" fill-rule="evenodd" d="M-459.718 1226.114a1.36 1.36 89.982 0 0-.25.36 1.36 1.36 89.982 0 1 1.559.278l5.331 5.331a1.36 1.36 89.982 0 1 .28 1.56 1.36 1.36 89.982 0 0 .36-2.2l-5.33-5.332a1.36 1.36 89.982 0 0-1.95 0z" color="#000" font-family="sans-serif" font-weight="400" overflow="visible" style="line-height:normal;text-indent:0;text-align:start;text-decoration-line:none;text-decoration-style:solid;text-decoration-color:#000;text-transform:none;block-progression:tb;isolation:auto;mix-blend-mode:normal"/><path fill="none" stroke="#000" stroke-linecap="round" stroke-linejoin="round" d="M-459.72 1226.113a1.36 1.36 89.982 0 0 .028 1.92l5.333 5.332a1.36 1.36 89.982 1 0 1.922-1.922l-5.332-5.332a1.36 1.36 89.982 0 0-1.95 0z" color="#000" font-family="sans-serif" font-weight="400" overflow="visible" style="line-height:normal;text-indent:0;text-align:start;text-decoration-line:none;text-decoration-style:solid;text-decoration-color:#000;text-transform:none;block-progression:tb;isolation:auto;mix-blend-mode:normal"/><path fill="#00a5ff" d="M-470.01 1215.906c-.095.095-.18.196-.268.296 2.43-2.141 6.125-2.09 8.419.203 2.294 2.294 2.344 5.99.203 8.419.1-.088.201-.172.296-.267 2.416-2.416 2.452-6.327.064-8.715s-6.299-2.352-8.714.064z" color="#000" font-family="sans-serif" font-weight="400" overflow="visible" style="line-height:normal;text-indent:0;text-align:start;text-decoration-line:none;text-decoration-style:solid;text-decoration-color:#000;text-transform:none;block-progression:tb;isolation:auto;mix-blend-mode:normal"/><ellipse cx="-1192.115" cy="533.526" fill="none" stroke="#000" stroke-linecap="round" stroke-linejoin="round" color="#000" style="isolation:auto;mix-blend-mode:normal" overflow="visible" rx="6.369" ry="6.268" transform="rotate(-45.001) skewX(-.002)"/></g></svg>